# Alias OBJ Model File
# Exported from SketchUp, (c) 2000-2012 Trimble Navigation Limited
# File units = inches

mtllib Fridge.mtl

g Mesh1 Model

usemtl FrontColor
v 0 0 -0
vt 0 0
vn 0 -1 -0
v 0 0 -36
vt 0 36
v 32.25 0 -36
vt -32.25 36
v 32.25 0 -0
vt -32.25 0
f 1/1/1 2/2/1 3/3/1 4/4/1 

vt -36 0
vn -1 0 -0
v 0 80.4375 -0
vt 0 80.4375
v 0 80.4375 -36
vt -36 80.4375
f 2/5/2 1/1/2 5/6/2 6/7/2 

vn 0 0 1
vt 32.25 0
v 32.25 80.4375 -0
vt 32.25 80.4375
f 1/1/3 4/8/3 7/9/3 5/6/3 

vn 1 0 -0
v 32.25 1.5716 -1.5716
vt 1.5716 1.5716
f 4/1/4 8/10/4 7/6/4

vt 36 0
f 8/10/4 4/1/4 3/11/4

v 32.25 1.5716 -34.4284
vt 34.4284 1.5716
f 8/10/4 3/11/4 9/12/4

v 32.25 78.8659 -34.4284
vt 34.4284 78.8659
f 9/12/4 3/11/4 10/13/4

v 32.25 80.4375 -36
vt 36 80.4375
f 11/14/4 10/13/4 3/11/4

v 32.25 78.8659 -1.5716
vt 1.5716 78.8659
f 11/14/4 12/15/4 10/13/4

f 7/6/4 12/15/4 11/14/4

f 12/15/4 7/6/4 8/10/4

vt -32.25 78.8659
vn 0 0 -1
vt -32.25 1.5716
v 1 1.5716 -1.5716
vt -1 1.5716
v 1 78.8659 -1.5716
vt -1 78.8659
f 12/16/5 8/17/5 13/18/5 14/19/5 

vt 32.25 1.5716
vn 0 1 -0
vt 32.25 34.4284
v 1 1.5716 -34.4284
vt 1 34.4284
vt 1 1.5716
f 8/20/6 9/21/6 15/22/6 13/23/6 

vt 32.25 78.8659
v 1 78.8659 -34.4284
vt 1 78.8659
f 9/20/3 10/24/3 16/25/3 15/23/3 

vt -32.25 34.4284
vt -1 34.4284
f 10/26/1 12/17/1 14/18/1 16/27/1 

f 14/15/4 13/10/4 15/12/4 16/13/4 

vt 32.25 36
f 6/2/6 5/1/6 7/8/6 11/28/6 

vt -32.25 80.4375
f 3/4/5 2/1/5 6/6/5 11/29/5 

